/* XPM */
static char * cube trains_xpm[] = {
"32 32 63 1",
" 	c None",
".	c #000000",
"+	c #2E2E1E",
"@	c #999966",
"#	c #CACA86",
"$	c #F3F3A2",
"%	c #D3D38C",
"&	c #A3A36C",
"*	c #74744D",
"=	c #87875A",
"-	c #D2D28C",
";	c #2C2C1D",
">	c #FFFFAA",
",	c #808055",
"'	c #010100",
")	c #71714B",
"!	c #F8F8A5",
"~	c #76764E",
"{	c #FAFAA6",
"]	c #B8B87A",
"^	c #8E8E5E",
"/	c #B2B276",
"(	c #ECEC9D",
"_	c #C0C080",
":	c #1E1E14",
"<	c #F4F4A2",
"[	c #DCDC92",
"}	c #313120",
"|	c #7D7D53",
"1	c #7E7E54",
"2	c #919160",
"3	c #FDFDA8",
"4	c #363624",
"5	c #030302",
"6	c #DFDF94",
"7	c #545438",
"8	c #7F7F54",
"9	c #C1C180",
"0	c #BEBE7E",
"a	c #222216",
"b	c #3E3E29",
"c	c #E0E095",
"d	c #5D5D3E",
"e	c #EDED9E",
"f	c #191910",
"g	c #4E4E34",
"h	c #FBFBA7",
"i	c #868659",
"j	c #D0D08A",
"k	c #B1B176",
"l	c #ECECEC",
"m	c #9E9E69",
"n	c #242418",
"o	c #383825",
"p	c #7A7A51",
"q	c #FEFEA9",
"r	c #BFBF7F",
"s	c #646442",
"t	c #050503",
"u	c #020201",
"v	c #59593B",
"w	c #747474",
"x	c #9F9F9F",
"                                ",
"    ........................... ",
"  ...+@#$%&*=-;..>>>>>>>>>>>>,. ",
"  .')!>>>>>>>>~..>>>>>>>>>>>>,. ",
" ..)>>{]^/(>>>,..>>_,,>>_,,>>,. ",
" .:<>[}...'|>>1..>>,..>>,..>>,. ",
" .2>34.. ..56>7..>>8..>>,..>>8. ",
" .9>0..   ..ab...c>d..>>,..c>d. ",
" .e>2.     .... .fg'..>>,..fg'. ",
" .>>,.          ......>>,...... ",
" .h>i.          .    .>>,.      ",
" .j>k..       ..l..  .>>,.      ",
" .m>$n..   ...lllll...>>,.      ",
" .oh>%}.....lllllllll..>,....   ",
" ..p>>qr..ll..lllllllll..,st.   ",
"  .u~<..l..lll..lllllllll..v.   ",
"  ....lllll..lll..lllllllll..   ",
"   .lllllllll..lll..lllllllll.  ",
"   ...lllllllll..lll..lllll...  ",
"   .ww..lllllllll..lll..l..xx.  ",
"   .wwww..lllllllll..ll..xxxx.  ",
"   .wwwwww..lllllllll..xxxxxx.  ",
"   .wwwwwwww..lllll..xxxxxxxx.  ",
"   .wwwwwwwwww..l..xxxxxxxxxx.  ",
"   .wwwwwwwwwwww.xxxxxxxxxxxx.  ",
"    ..wwwwwwwwww.xxxxxxxxxx..   ",
"      ..wwwwwwww.xxxxxxxx..     ",
"        ..wwwwww.xxxxxx..       ",
"          ..wwww.xxxx..         ",
"            ..ww.xx..           ",
"              .....             ",
"                .               "};
